<svg width="4079" height="1485" xmlns="http://www.w3.org/2000/svg" xmlns:xlink="http://www.w3.org/1999/xlink" xml:space="preserve" overflow="hidden"><g transform="translate(-160 -737)"><g><rect x="165.5" y="825.5" width="825" height="825" stroke="#002C73" stroke-width="4.58333" stroke-linecap="butt" stroke-linejoin="miter" stroke-miterlimit="8" stroke-opacity="1" fill="#3E8EDE" fill-opacity="1"/><text fill="#FFFFFF" fill-opacity="1" font-family="Arial,Arial_MSFontService,sans-serif" font-style="normal" font-variant="normal" font-weight="400" font-stretch="normal" font-size="92" text-anchor="start" direction="ltr" writing-mode="lr-tb" unicode-bidi="normal" text-decoration="none" transform="matrix(1 0 0 1 391.588 931)">Approver</text><rect x="3410.5" y="823.5" width="825" height="825" stroke="#002C73" stroke-width="4.58333" stroke-linecap="butt" stroke-linejoin="miter" stroke-miterlimit="8" stroke-opacity="1" fill="#3E8EDE" fill-opacity="1"/><text fill="#FFFFFF" fill-opacity="1" font-family="Arial,Arial_MSFontService,sans-serif" font-style="normal" font-variant="normal" font-weight="400" font-stretch="normal" font-size="92" text-anchor="start" direction="ltr" writing-mode="lr-tb" unicode-bidi="normal" text-decoration="none" transform="matrix(1 0 0 1 3611.09 928)">Requester</text><path d="M330.5 1235.5C330.5 1144.37 441.309 1070.5 578 1070.5 714.69 1070.5 825.5 1144.37 825.5 1235.5 825.5 1326.63 714.69 1400.5 578 1400.5 441.309 1400.5 330.5 1326.63 330.5 1235.5Z" stroke="#002C73" stroke-width="4.58333" stroke-linecap="butt" stroke-linejoin="miter" stroke-miterlimit="8" stroke-opacity="1" fill="#FFFFFF" fill-rule="evenodd" fill-opacity="1"/><text fill="#000000" fill-opacity="1" font-family="Arial,Arial_MSFontService,sans-serif" font-style="normal" font-variant="normal" font-weight="400" font-stretch="normal" font-size="92" text-anchor="start" direction="ltr" writing-mode="lr-tb" unicode-bidi="normal" text-decoration="none" transform="matrix(1 0 0 1 444.87 1214)">ACME</text><text fill="#000000" fill-opacity="1" font-family="Arial,Arial_MSFontService,sans-serif" font-style="normal" font-variant="normal" font-weight="400" font-stretch="normal" font-size="92" text-anchor="start" direction="ltr" writing-mode="lr-tb" unicode-bidi="normal" text-decoration="none" transform="matrix(1 0 0 1 442.578 1313)">Server</text><path d="M3575.5 1235.5C3575.5 1144.37 3686.31 1070.5 3823 1070.5 3959.69 1070.5 4070.5 1144.37 4070.5 1235.5 4070.5 1326.63 3959.69 1400.5 3823 1400.5 3686.31 1400.5 3575.5 1326.63 3575.5 1235.5Z" stroke="#002C73" stroke-width="4.58333" stroke-linecap="butt" stroke-linejoin="miter" stroke-miterlimit="8" stroke-opacity="1" fill="#FFFFFF" fill-rule="evenodd" fill-opacity="1"/><text fill="#000000" fill-opacity="1" font-family="Arial,Arial_MSFontService,sans-serif" font-style="normal" font-variant="normal" font-weight="400" font-stretch="normal" font-size="92" text-anchor="start" direction="ltr" writing-mode="lr-tb" unicode-bidi="normal" text-decoration="none" transform="matrix(1 0 0 1 3689.87 1214)">ACME</text><text fill="#000000" fill-opacity="1" font-family="Arial,Arial_MSFontService,sans-serif" font-style="normal" font-variant="normal" font-weight="400" font-stretch="normal" font-size="92" text-anchor="start" direction="ltr" writing-mode="lr-tb" unicode-bidi="normal" text-decoration="none" transform="matrix(1 0 0 1 3705.04 1313)">Client</text><path d="M0.208093-2.2822 6.19093-1.73668 12.3392-0.0657984 18.4215 2.67055 24.4328 6.43227 30.3778 11.1865 36.2645 16.9079 42.1005 23.5765 47.8915 31.1751 53.6411 39.688 59.3511 49.1002 65.0223 59.3966 70.6543 70.5621 76.2461 82.5814 81.7964 95.4391 87.3032 109.119 92.7647 123.607 98.1784 138.885 103.542 154.938 108.853 171.751 114.11 189.306 119.308 207.587 124.447 226.579 129.522 246.265 134.532 266.628 139.473 287.652 144.343 309.322 149.14 331.619 153.859 354.528 158.499 378.033 163.058 402.117 167.531 426.763 171.916 451.956 176.211 477.678 180.412 503.912 184.517 530.643 188.523 557.855 192.428 585.529 196.227 613.651 199.92 642.203 203.502 671.169 206.971 700.532 210.324 730.278 216.671 790.839 222.521 852.728 227.851 915.809 232.638 979.949 236.861 1045.02 240.496 1110.88 243.521 1177.41 245.912 1244.46 247.649 1311.92 248.707 1379.64 249.065 1447.49 248.714 1515.34 247.675 1583.06 245.971 1650.52 243.624 1717.57 240.655 1784.1 237.088 1849.96 232.944 1915.03 228.245 1979.17 223.014 2042.25 217.273 2104.14 211.044 2164.7 207.753 2194.45 204.348 2223.81 200.833 2252.77 197.209 2281.33 193.48 2309.45 189.648 2337.12 185.716 2364.33 181.688 2391.06 177.564 2417.3 173.349 2443.02 169.046 2468.21 164.656 2492.86 160.182 2516.94 155.628 2540.45 150.996 2563.35 146.289 2585.65 141.509 2607.32 136.66 2628.34 131.743 2648.71 126.762 2668.39 121.72 2687.38 116.618 2705.67 111.459 2723.22 106.247 2740.03 100.983 2756.08 95.6697 2771.36 90.3099 2785.85 84.9056 2799.53 79.4586 2812.39 73.9709 2824.4 68.4438 2835.57 62.8782 2845.87 57.2744 2855.28 51.6317 2863.79 45.9481 2871.39 40.2198 2878.06 34.3098 2883.91 26.9005 2888.19 24.6074 2884.22 31.7607 2880.09 31.2948 2880.45 36.9291 2874.87 36.8031 2875 42.4208 2868.46 42.3241 2868.58 47.9224 2861.1 47.8474 2861.2 53.4235 2852.79 53.3645 2852.89 58.9157 2843.56 58.8688 2843.64 64.3922 2833.43 64.3544 2833.5 69.8474 2822.4 69.8165 2822.47 75.2762 2810.51 75.2507 2810.57 80.6744 2797.77 80.6531 2797.82 86.038 2784.19 86.0201 2784.24 91.3633 2769.79 91.3481 2769.84 96.647 2754.6 96.634 2754.64 101.886 2738.62 101.874 2738.66 107.076 2721.88 107.067 2721.91 112.216 2704.39 112.207 2704.42 117.301 2686.17 117.293 2686.19 122.329 2667.23 122.322 2667.26 127.297 2647.6 127.291 2647.62 132.202 2627.28 132.196 2627.3 137.041 2606.3 137.036 2606.32 141.811 2584.67 141.807 2584.69 146.51 2562.42 146.506 2562.44 151.134 2539.55 151.13 2539.56 155.681 2516.08 155.678 2516.1 160.148 2492.03 160.145 2492.05 164.532 2467.42 164.529 2467.43 168.83 2442.26 168.828 2442.27 173.04 2416.56 173.038 2416.58 177.159 2390.36 177.156 2390.37 181.183 2363.66 181.181 2363.67 185.111 2336.47 185.109 2336.49 188.939 2308.82 188.937 2308.84 192.665 2280.73 192.663 2280.74 196.285 2252.2 196.283 2252.22 199.797 2223.26 199.796 2223.27 203.199 2193.92 203.198 2193.94 206.487 2164.2 206.485 2164.22 212.712 2103.68 212.71 2103.7 218.449 2041.84 218.447 2041.86 223.676 1978.8 223.675 1978.82 228.372 1914.71 228.37 1914.73 232.513 1849.68 232.512 1849.7 236.078 1783.86 236.077 1783.88 239.044 1717.38 239.043 1717.4 241.39 1650.37 241.389 1650.39 243.093 1582.96 243.093 1582.98 244.131 1515.28 244.131 1515.31 244.482 1447.48 244.482 1447.5 244.124 1379.67 244.124 1379.7 243.066 1312 243.067 1312.02 241.331 1244.59 241.332 1244.62 238.941 1177.58 238.941 1177.6 235.918 1111.1 235.919 1111.12 232.285 1045.28 232.287 1045.3 228.065 980.257 228.067 980.279 223.281 916.161 223.283 916.183 217.955 853.125 217.957 853.148 212.109 791.282 212.111 791.305 205.767 730.765 205.769 730.783 202.417 701.051 202.418 701.063 198.951 671.712 198.952 671.725 195.372 642.772 195.373 642.784 191.683 614.245 191.684 614.258 187.886 586.15 187.888 586.163 183.986 558.502 183.988 558.515 179.984 531.318 179.986 531.332 175.883 504.615 175.885 504.63 171.686 478.41 171.689 478.425 167.396 452.718 167.399 452.734 163.017 427.558 163.02 427.574 158.549 402.944 158.553 402.961 153.998 378.895 154.001 378.912 149.365 355.425 149.368 355.444 144.652 332.554 144.657 332.573 139.865 310.296 139.869 310.316 135.004 288.668 135.009 288.69 130.073 267.688 130.078 267.711 125.074 247.372 125.081 247.397 120.012 227.737 120.019 227.763 114.888 208.798 114.896 208.827 109.705 190.575 109.714 190.605 104.468 173.082 104.478 173.115 99.1774 156.337 99.1891 156.373 93.8379 140.357 93.8514 140.396 88.4522 125.159 88.4679 125.202 83.0235 110.76 83.0419 110.807 77.5552 97.177 77.5771 97.2295 72.0508 84.4273 72.077 84.4858 66.514 72.5284 66.5457 72.5938 60.9488 61.4979 60.9876 61.5714 55.3596 51.3535 55.4076 51.4365 49.7514 42.113 49.8116 42.207 44.13 33.7946 44.2064 33.9011 38.5022 26.4164 38.6004 26.5365 32.8764 19.996 33.0037 20.1301 27.2628 14.5504 27.4287 14.6968 21.6736 10.0944 21.8893 10.2473 16.1229 6.63889 16.3984 6.78615 10.6235 4.18817 10.9628 4.30972 5.18229 2.73878 5.5752 2.80953-0.208093 2.2822ZM35.2523 2897.16 4.58333 2894.98 24.7238 2871.75Z" fill="#002C73" fill-rule="nonzero" fill-opacity="1" transform="matrix(-1.83697e-16 -1 -1 1.83697e-16 3650.48 1121.08)"/><text fill="#333F50" fill-opacity="1" font-family="Arial,Arial_MSFontService,sans-serif" font-style="normal" font-variant="normal" font-weight="400" font-stretch="normal" font-size="92" text-anchor="start" direction="ltr" writing-mode="lr-tb" unicode-bidi="normal" text-decoration="none" transform="matrix(1 0 0 1 2027.28 856)">1. Request</text><path d="M753.283 1120.5 753.929 1118.03 755.966 1115.41 758.928 1113.11 762.785 1110.95 767.56 1108.87 773.264 1106.82 779.897 1104.79 787.454 1102.78 795.924 1100.78 805.294 1098.79 815.55 1096.82 826.679 1094.86 838.664 1092.91 851.491 1090.97 865.142 1089.05 879.603 1087.15 894.857 1085.26 910.888 1083.39 927.68 1081.53 945.215 1079.7 963.479 1077.88 982.454 1076.09 1002.12 1074.32 1022.47 1072.57 1043.48 1070.84 1065.14 1069.14 1087.42 1067.47 1110.32 1065.82 1133.81 1064.2 1157.88 1062.61 1182.52 1061.04 1207.7 1059.51 1233.41 1058.01 1259.64 1056.54 1286.36 1055.11 1313.56 1053.71 1341.23 1052.35 1369.34 1051.02 1397.89 1049.73 1426.84 1048.48 1456.2 1047.27 1485.94 1046.09 1546.49 1043.88 1608.36 1041.83 1671.43 1039.97 1735.55 1038.3 1800.61 1036.82 1866.46 1035.55 1932.97 1034.5 2000.01 1033.66 2067.45 1033.05 2202.99 1032.56 2338.53 1033.03 2405.97 1033.6 2473.01 1034.39 2539.52 1035.39 2605.37 1036.6 2670.43 1037.99 2734.55 1039.58 2797.62 1041.34 2859.49 1043.27 2920.04 1045.37 2949.77 1046.48 2979.13 1047.63 3008.09 1048.82 3036.63 1050.04 3064.74 1051.29 3092.41 1052.59 3119.61 1053.91 3146.33 1055.27 3172.56 1056.66 3198.27 1058.08 3223.45 1059.53 3248.08 1061.01 3272.16 1062.51 3295.65 1064.05 3318.55 1065.61 3340.83 1067.2 3362.49 1068.81 3383.5 1070.44 3403.85 1072.1 3423.52 1073.77 3442.49 1075.47 3460.75 1077.19 3478.29 1078.93 3495.08 1080.68 3511.11 1082.46 3526.36 1084.24 3540.82 1086.05 3554.47 1087.87 3567.3 1089.7 3579.28 1091.54 3590.41 1093.4 3600.67 1095.27 3610.03 1097.15 3618.5 1099.04 3626.25 1101 3631.35 1103.53 3629.31 1107.64 3624.43 1105.21 3624.89 1105.38 3617.41 1103.49 3617.47 1103.51 3609.06 1101.63 3609.11 1101.64 3599.78 1099.77 3599.82 1099.77 3589.61 1097.91 3589.64 1097.92 3578.54 1096.07 3578.57 1096.07 3566.61 1094.23 3566.64 1094.23 3553.84 1092.4 3553.86 1092.41 3540.23 1090.59 3540.25 1090.59 3525.8 1088.79 3525.82 1088.8 3510.58 1087.01 3510.6 1087.01 3494.58 1085.24 3494.6 1085.24 3477.82 1083.49 3477.83 1083.49 3460.31 1081.75 3460.32 1081.75 3442.07 1080.04 3442.08 1080.04 3423.11 1078.34 3423.12 1078.34 3403.46 1076.66 3403.47 1076.66 3383.13 1075.01 3383.14 1075.01 3362.14 1073.38 3362.15 1073.38 3340.5 1071.77 3340.51 1071.77 3318.23 1070.18 3295.35 1068.62 3271.87 1067.09 3247.81 1065.58 3223.19 1064.1 3198.01 1062.65 3172.31 1061.23 3146.1 1059.85 3119.39 1058.49 3092.19 1057.16 3064.54 1055.87 3036.43 1054.62 3007.9 1053.4 2978.95 1052.21 2949.6 1051.06 2919.88 1049.95 2859.34 1047.86 2859.34 1047.86 2797.48 1045.92 2797.49 1045.92 2734.43 1044.16 2734.44 1044.16 2670.32 1042.57 2670.32 1042.58 2605.28 1041.18 2605.29 1041.18 2539.44 1039.98 2539.45 1039.98 2472.95 1038.98 2472.96 1038.98 2405.92 1038.18 2405.93 1038.19 2338.5 1037.61 2338.51 1037.61 2202.98 1037.14 2203 1037.14 2067.47 1037.64 2067.49 1037.64 2000.05 1038.24 2000.06 1038.24 1933.03 1039.08 1933.04 1039.08 1866.53 1040.14 1866.54 1040.14 1800.7 1041.41 1800.71 1041.4 1735.66 1042.88 1735.67 1042.88 1671.55 1044.55 1671.56 1044.55 1608.5 1046.41 1608.51 1046.41 1546.64 1048.46 1546.65 1048.46 1486.12 1050.67 1456.39 1051.84 1427.04 1053.06 1398.09 1054.31 1369.56 1055.6 1341.46 1056.92 1313.8 1058.29 1286.61 1059.69 1259.9 1061.12 1233.68 1062.59 1207.98 1064.09 1182.81 1065.62 1158.19 1067.18 1134.13 1068.77 1110.65 1070.39 1087.76 1072.04 1065.49 1073.71 1065.49 1073.71 1043.85 1075.41 1043.85 1075.41 1022.85 1077.14 1022.86 1077.13 1002.52 1078.88 1002.53 1078.88 982.87 1080.65 982.88 1080.65 963.916 1082.45 963.927 1082.44 945.674 1084.26 945.686 1084.26 928.163 1086.09 928.176 1086.09 911.398 1087.94 911.413 1087.94 895.397 1089.81 895.413 1089.81 880.175 1091.69 880.193 1091.69 865.751 1093.59 865.771 1093.59 852.141 1095.51 852.163 1095.51 839.361 1097.44 839.387 1097.43 827.43 1099.38 827.46 1099.37 816.364 1101.33 816.399 1101.32 806.181 1103.29 806.223 1103.28 796.9 1105.26 796.951 1105.24 788.538 1107.23 788.602 1107.21 781.117 1109.21 781.198 1109.18 774.657 1111.18 774.762 1111.15 769.182 1113.16 769.325 1113.1 764.722 1115.11 764.922 1115.01 761.314 1117.03 761.602 1116.83 759.004 1118.85 759.407 1118.45 757.836 1120.47 758.245 1119.64 757.717 1121.66ZM3632.85 1091.31 3650.48 1116.5 3619.75 1115.49Z" fill="#002C73" fill-rule="nonzero" fill-opacity="1"/><text fill="#333F50" fill-opacity="1" font-family="Arial,Arial_MSFontService,sans-serif" font-style="normal" font-variant="normal" font-weight="400" font-stretch="normal" font-size="92" text-anchor="start" direction="ltr" writing-mode="lr-tb" unicode-bidi="normal" text-decoration="none" transform="matrix(1 0 0 1 2027.28 1000)">2. Challenge Info</text><path d="M3652.74 1350.89 3652.15 1354.3 3650.3 1357.91 3647.41 1361.32 3643.56 1364.58 3638.76 1367.76 3633.03 1370.89 3626.37 1373.98 3618.79 1377.04 3610.3 1380.08 3600.91 1383.1 3590.63 1386.1 3579.49 1389.08 3567.49 1392.04 3554.66 1394.98 3540.99 1397.9 3526.52 1400.79 3511.26 1403.66 3495.22 1406.5 3478.43 1409.31 3460.88 1412.09 3442.62 1414.85 3423.64 1417.57 3403.96 1420.26 3383.61 1422.91 3362.59 1425.53 3340.93 1428.11 3318.65 1430.66 3295.74 1433.16 3272.25 1435.62 3248.17 1438.03 3223.53 1440.4 3198.35 1442.73 3172.63 1445 3146.4 1447.23 3119.68 1449.41 3092.48 1451.53 3064.81 1453.6 3036.69 1455.61 3008.15 1457.57 2979.19 1459.47 2949.83 1461.31 2920.09 1463.08 2859.54 1466.45 2797.66 1469.55 2734.59 1472.37 2670.46 1474.91 2605.4 1477.15 2539.55 1479.08 2473.03 1480.68 2405.99 1481.95 2338.54 1482.87 2270.83 1483.43 2202.99 1483.62 2067.44 1482.89 2000 1482.01 1932.95 1480.78 1866.44 1479.24 1800.58 1477.38 1735.53 1475.22 1671.4 1472.77 1608.33 1470.04 1546.45 1467.05 1485.9 1463.8 1456.16 1462.09 1426.81 1460.31 1397.85 1458.48 1369.3 1456.59 1341.18 1454.65 1313.52 1452.65 1286.31 1450.6 1259.58 1448.5 1233.36 1446.36 1207.64 1444.16 1182.46 1441.92 1157.82 1439.63 1133.74 1437.3 1110.25 1434.92 1087.35 1432.51 1065.06 1430.06 1043.4 1427.57 1022.38 1425.04 1002.03 1422.48 982.358 1419.89 963.378 1417.26 945.109 1414.6 927.568 1411.91 910.771 1409.2 894.734 1406.46 879.473 1403.69 865.004 1400.9 851.343 1398.09 838.507 1395.25 826.51 1392.4 815.369 1389.52 805.097 1386.63 795.71 1383.72 787.221 1380.78 779.482 1377.76 771.2 1372.45 773.676 1368.59 781.765 1373.78 781.36 1373.58 788.845 1376.5 788.761 1376.46 797.173 1379.37 797.104 1379.35 806.427 1382.24 806.369 1382.23 816.588 1385.1 816.539 1385.09 827.634 1387.95 827.593 1387.94 839.55 1390.79 839.514 1390.78 852.316 1393.61 852.284 1393.6 865.914 1396.41 865.886 1396.4 880.328 1399.19 880.303 1399.18 895.54 1401.95 895.517 1401.94 911.533 1404.68 911.513 1404.68 928.29 1407.39 928.272 1407.38 945.795 1410.07 945.778 1410.07 964.03 1412.72 964.014 1412.72 982.979 1415.34 982.964 1415.34 1002.62 1417.94 1002.61 1417.93 1022.95 1420.49 1022.94 1420.49 1043.94 1423.02 1043.93 1423.02 1065.58 1425.5 1065.56 1425.5 1087.84 1427.95 1087.83 1427.95 1110.72 1430.37 1110.71 1430.37 1134.2 1432.74 1134.19 1432.74 1158.26 1435.07 1158.25 1435.07 1182.88 1437.35 1182.87 1437.35 1208.04 1439.59 1208.04 1439.59 1233.74 1441.79 1233.73 1441.79 1259.95 1443.94 1259.95 1443.94 1286.66 1446.03 1286.66 1446.03 1313.85 1448.08 1341.5 1450.08 1369.6 1452.02 1398.14 1453.91 1427.08 1455.74 1456.43 1457.51 1486.16 1459.23 1486.15 1459.23 1546.69 1462.47 1546.68 1462.47 1608.54 1465.46 1608.53 1465.46 1671.59 1468.19 1671.58 1468.19 1735.7 1470.64 1735.68 1470.64 1800.73 1472.8 1800.72 1472.8 1866.56 1474.65 1866.55 1474.65 1933.05 1476.2 1933.04 1476.2 2000.08 1477.42 2000.06 1477.42 2067.5 1478.31 2067.48 1478.31 2203 1479.04 2202.98 1479.04 2270.81 1478.85 2270.8 1478.85 2338.5 1478.29 2338.49 1478.29 2405.92 1477.37 2405.9 1477.37 2472.94 1476.1 2472.93 1476.1 2539.43 1474.49 2539.42 1474.5 2605.26 1472.57 2605.25 1472.57 2670.29 1470.33 2670.28 1470.33 2734.4 1467.79 2734.39 1467.8 2797.45 1464.97 2797.44 1464.97 2859.3 1461.87 2859.29 1461.87 2919.83 1458.51 2919.82 1458.51 2949.54 1456.73 2978.89 1454.89 3007.83 1453 3036.37 1451.04 3064.47 1449.03 3092.13 1446.96 3092.12 1446.96 3119.32 1444.84 3119.31 1444.84 3146.03 1442.66 3146.02 1442.66 3172.24 1440.44 3172.23 1440.44 3197.94 1438.16 3197.93 1438.16 3223.11 1435.84 3223.1 1435.84 3247.73 1433.47 3247.72 1433.47 3271.78 1431.06 3271.78 1431.06 3295.26 1428.6 3295.25 1428.6 3318.14 1426.1 3318.13 1426.1 3340.41 1423.56 3340.4 1423.56 3362.05 1420.98 3362.03 1420.98 3383.03 1418.37 3383.02 1418.37 3403.36 1415.72 3403.35 1415.72 3423.01 1413.03 3422.99 1413.03 3441.96 1410.31 3441.94 1410.31 3460.19 1407.56 3460.18 1407.57 3477.7 1404.78 3477.68 1404.79 3494.46 1401.98 3494.44 1401.98 3510.45 1399.14 3510.43 1399.15 3525.67 1396.29 3525.64 1396.29 3540.08 1393.4 3540.05 1393.41 3553.68 1390.5 3553.65 1390.51 3566.45 1387.58 3566.41 1387.59 3578.37 1384.64 3578.33 1384.65 3589.42 1381.68 3589.37 1381.7 3599.59 1378.71 3599.53 1378.73 3608.86 1375.73 3608.79 1375.76 3617.2 1372.74 3617.11 1372.78 3624.6 1369.75 3624.49 1369.8 3631.03 1366.77 3630.9 1366.83 3636.48 1363.79 3636.31 1363.89 3640.91 1360.84 3640.7 1361 3644.3 1357.94 3644.04 1358.21 3646.64 1355.15 3646.34 1355.59 3647.92 1352.52 3647.7 1353.18 3648.22 1350.11ZM766.563 1383.77 755.5 1355.08 785.087 1363.44Z" fill="#002C73" fill-rule="nonzero" fill-opacity="1"/><text fill="#333F50" fill-opacity="1" font-family="Arial,Arial_MSFontService,sans-serif" font-style="normal" font-variant="normal" font-weight="400" font-stretch="normal" font-size="92" text-anchor="start" direction="ltr" writing-mode="lr-tb" unicode-bidi="normal" text-decoration="none" transform="matrix(1 0 0 1 2027.28 1434)">3. Challenge Accepted</text><path d="M0.141889-2.28727 8.78083-1.75136 17.5424-0.131396 26.2714 2.54032 34.9594 6.23919 43.6015 10.9412 52.1952 16.6236 60.7393 23.2658 69.2333 30.8484 77.6763 39.3534 86.0673 48.7634 94.4046 59.0618 102.686 70.2321 110.91 82.258 119.073 95.1236 127.172 108.813 135.205 123.309 143.167 138.596 151.055 154.659 158.866 171.48 166.596 189.044 174.241 207.335 181.797 226.335 189.26 246.029 196.626 266.4 203.892 287.432 211.053 309.109 218.105 331.414 225.045 354.33 231.867 377.842 238.569 401.932 245.145 426.585 251.592 451.784 257.906 477.512 264.083 503.753 270.118 530.49 276.008 557.707 281.748 585.387 287.334 613.514 292.762 642.071 298.028 671.043 303.128 700.411 308.058 730.164 317.389 790.734 325.989 852.633 333.824 915.724 340.862 979.875 347.07 1044.95 352.413 1110.83 356.86 1177.36 360.376 1244.43 362.929 1311.9 364.485 1379.63 365.011 1447.49 364.492 1515.35 362.955 1583.09 360.435 1650.55 356.963 1717.62 352.573 1784.15 347.297 1850.03 341.168 1915.1 334.219 1979.25 326.482 2042.35 317.991 2104.24 308.778 2164.81 303.91 2194.57 298.875 2223.93 293.676 2252.91 288.316 2281.46 282.801 2309.59 277.133 2337.27 271.318 2364.49 265.359 2391.22 259.261 2417.46 253.026 2443.19 246.661 2468.39 240.167 2493.04 233.55 2517.13 226.814 2540.64 219.963 2563.56 213 2585.86 205.929 2607.54 198.755 2628.57 191.482 2648.94 184.113 2668.64 176.653 2687.64 169.105 2705.93 161.473 2723.49 153.761 2740.31 145.972 2756.38 138.111 2771.66 130.18 2786.16 122.183 2799.85 114.123 2812.71 106.004 2824.74 97.8265 2835.91 89.5944 2846.21 81.3092 2855.62 72.9723 2864.12 64.5847 2871.71 56.1471 2878.35 47.6598 2884.03 39.0426 2888.78 27.7774 2892.6 26.3077 2888.26 37.38 2884.51 37.0088 2884.67 45.361 2880.07 45.1918 2880.17 53.5235 2874.59 53.381 2874.69 61.688 2868.15 61.5688 2868.25 69.8471 2860.77 69.7475 2860.87 77.9931 2852.45 77.9096 2852.54 86.1183 2843.22 86.0483 2843.3 94.216 2833.09 94.1569 2833.16 102.28 2822.07 102.229 2822.14 110.303 2810.18 110.26 2810.25 118.28 2797.44 118.244 2797.5 126.206 2783.87 126.175 2783.93 134.076 2769.49 134.048 2769.54 141.884 2754.3 141.86 2754.35 149.626 2738.34 149.605 2738.38 157.297 2721.6 157.279 2721.64 164.893 2704.12 164.876 2704.16 172.409 2685.91 172.394 2685.94 179.84 2666.98 179.827 2667.01 187.183 2647.35 187.172 2647.39 194.434 2627.05 194.423 2627.08 201.586 2606.08 201.577 2606.11 208.638 2584.46 208.629 2584.49 215.583 2562.21 215.575 2562.23 222.419 2539.34 222.412 2539.37 229.141 2515.88 229.134 2515.91 235.744 2491.84 235.738 2491.86 242.225 2467.23 242.22 2467.26 248.58 2442.08 248.575 2442.1 254.804 2416.39 254.799 2416.42 260.893 2390.2 260.888 2390.22 266.842 2363.5 266.838 2363.52 272.649 2336.32 272.645 2336.34 278.309 2308.68 278.305 2308.7 283.817 2280.59 283.813 2280.61 289.169 2252.07 289.166 2252.09 294.362 2223.13 294.359 2223.15 299.392 2193.8 299.389 2193.82 304.253 2164.09 304.249 2164.11 313.457 2103.57 313.452 2103.6 321.939 2041.74 321.935 2041.77 329.667 1978.71 329.664 1978.74 336.609 1914.63 336.606 1914.66 342.732 1849.61 342.729 1849.64 348.003 1783.8 348 1783.83 352.388 1717.33 352.387 1717.36 355.857 1650.33 355.855 1650.36 358.374 1582.93 358.373 1582.96 359.909 1515.27 359.908 1515.3 360.428 1447.47 360.428 1447.51 359.902 1379.68 359.902 1379.71 358.347 1312.02 358.348 1312.05 355.797 1244.62 355.798 1244.65 352.284 1177.62 352.286 1177.65 347.841 1111.15 347.844 1111.18 342.503 1045.34 342.506 1045.37 336.301 980.326 336.305 980.359 329.27 916.24 329.274 916.273 321.442 853.215 321.447 853.247 312.851 791.382 312.856 791.415 303.53 730.875 303.534 730.901 298.608 701.169 298.611 701.186 293.514 671.836 293.517 671.853 288.255 642.9 288.258 642.918 282.833 614.379 282.837 614.398 277.254 586.289 277.258 586.308 271.522 558.647 271.526 558.666 265.641 531.469 265.645 531.489 259.615 504.772 259.619 504.793 253.448 478.572 253.453 478.594 247.144 452.887 247.149 452.909 240.708 427.733 240.714 427.755 234.143 403.126 234.15 403.149 227.455 379.083 227.462 379.107 220.647 355.62 220.654 355.646 213.723 332.755 213.731 332.782 206.687 310.505 206.696 310.533 199.545 288.885 199.555 288.914 192.3 267.912 192.311 267.943 184.956 247.604 184.968 247.637 177.518 227.976 177.531 228.011 169.989 209.047 170.004 209.084 162.376 190.832 162.392 190.871 154.681 173.348 154.7 173.39 146.909 156.612 146.93 156.657 139.065 140.641 139.089 140.69 131.153 125.452 131.181 125.504 123.179 111.062 123.211 111.119 115.147 97.4882 115.184 97.549 107.061 84.7468 107.104 84.8127 98.9276 72.8553 98.9784 72.9266 90.7518 61.8307 90.8116 61.9078 82.5393 51.6898 82.6101 51.773 74.2963 42.4496 74.3804 42.5389 66.0293 34.1265 66.1295 34.2216 57.7452 26.7369 57.8648 26.8366 49.4514 20.2961 49.594 20.3983 41.1557 14.8186 41.3244 14.9201 32.8654 10.3177 33.063 10.4132 24.5873 6.80477 24.8143 6.88756 16.3262 4.28958 16.5803 4.35173 8.08389 2.7808 8.35865 2.8146-0.141889 2.28727ZM34.268 2902.99 4.58333 2894.98 28.8007 2876.04Z" fill="#002C73" fill-rule="nonzero" fill-opacity="1" transform="matrix(1.83697e-16 1 1 -1.83697e-16 755.5 1350.5)"/><text fill="#333F50" fill-opacity="1" font-family="Arial,Arial_MSFontService,sans-serif" font-style="normal" font-variant="normal" font-weight="400" font-stretch="normal" font-size="92" text-anchor="start" direction="ltr" writing-mode="lr-tb" unicode-bidi="normal" text-decoration="none" transform="matrix(1 0 0 1 2027.28 1628)">4. Challenge Verification</text><path d="M0.105692-2.28923 13.012-1.69335 26.0102 0.0953126 38.9841 3.05072 51.9247 7.15113 64.8246 12.3747 77.6771 18.6998 90.4763 26.1052 103.217 34.5702 115.895 44.0746 128.504 54.5988 141.04 66.1234 153.498 78.6294 165.873 92.0978 178.16 106.51 190.353 121.848 202.447 138.092 214.436 155.225 226.316 173.227 238.079 192.082 249.72 211.769 261.234 232.271 272.615 253.57 283.855 275.646 294.951 298.482 305.894 322.059 316.68 346.359 327.302 371.363 337.755 397.053 348.031 423.41 358.125 450.416 368.031 478.052 377.742 506.3 387.252 535.141 396.556 564.558 405.646 594.531 414.517 625.041 423.163 656.071 431.577 687.602 439.753 719.615 447.685 752.092 455.366 785.015 462.791 818.364 469.953 852.121 476.847 886.273 489.799 955.657 501.601 1026.38 512.202 1098.3 521.552 1171.25 529.601 1245.09 536.298 1319.68 541.594 1394.86 543.701 1432.63 545.439 1470.49 546.802 1508.43 547.783 1546.42 548.376 1584.45 548.575 1622.5 548.378 1660.55 547.789 1698.58 546.817 1736.57 545.465 1774.51 541.653 1850.13 536.401 1925.32 529.76 1999.9 521.779 2073.75 512.508 2146.7 501.996 2218.61 490.293 2289.34 477.449 2358.72 470.613 2392.88 463.511 2426.63 456.149 2459.98 448.532 2492.9 440.667 2525.38 432.559 2557.39 424.216 2588.92 415.643 2619.95 406.846 2650.46 397.832 2680.44 388.607 2709.85 379.176 2738.69 369.546 2766.94 359.724 2794.58 349.714 2821.58 339.524 2847.94 329.16 2873.63 318.627 2898.63 307.932 2922.93 297.08 2946.51 286.078 2969.35 274.931 2991.42 263.647 3012.72 252.229 3033.22 240.686 3052.91 229.021 3071.77 217.241 3089.77 205.353 3106.9 193.36 3123.14 181.269 3138.48 169.085 3152.9 156.814 3166.36 144.46 3178.87 132.029 3190.39 119.525 3200.92 106.953 3210.42 94.3181 3218.89 81.6248 3226.3 68.8785 3232.62 56.0848 3237.85 43.2103 3241.96 27.812 3244.91 26.9489 3240.41 42.2122 3237.49 41.9462 3237.55 54.604 3233.51 54.4353 3233.57 67.0683 3228.41 66.9159 3228.48 79.5179 3222.23 79.3819 3222.3 91.9467 3214.97 91.826 3215.04 104.348 3206.65 104.241 3206.73 116.713 3197.3 116.619 3197.37 129.035 3186.92 128.953 3187 141.307 3175.54 141.235 3175.61 153.521 3163.18 153.457 3163.24 165.669 3149.84 165.613 3149.9 177.743 3135.55 177.694 3135.61 189.738 3120.34 189.694 3120.39 201.645 3104.21 201.606 3104.26 213.458 3087.18 213.423 3087.23 225.17 3069.28 225.139 3069.33 236.774 3050.52 236.746 3050.57 248.263 3030.93 248.237 3030.97 259.631 3010.51 259.608 3010.55 270.871 2989.3 270.85 2989.34 281.977 2967.3 281.958 2967.34 292.942 2944.54 292.925 2944.58 303.76 2921.04 303.744 2921.07 314.425 2896.81 314.41 2896.84 324.929 2871.87 324.916 2871.9 335.268 2846.24 335.256 2846.27 345.434 2819.95 345.422 2819.98 355.421 2793 355.41 2793.03 365.223 2765.42 365.213 2765.45 374.833 2737.23 374.824 2737.26 384.246 2708.44 384.237 2708.47 393.455 2679.08 393.447 2679.1 402.453 2649.16 402.446 2649.18 411.235 2618.7 411.228 2618.72 419.795 2587.72 419.788 2587.74 428.125 2556.23 428.119 2556.26 436.221 2524.27 436.215 2524.29 444.074 2491.84 444.069 2491.86 451.681 2458.96 451.676 2458.98 459.033 2425.66 459.028 2425.68 466.125 2391.94 466.121 2391.96 472.952 2357.84 472.945 2357.87 485.782 2288.53 485.774 2288.57 497.47 2217.89 497.464 2217.93 507.969 2146.06 507.963 2146.1 517.229 2073.19 517.224 2073.23 525.201 1999.43 525.196 1999.48 531.834 1924.93 531.83 1924.97 537.079 1849.84 537.076 1849.88 540.887 1774.3 540.885 1774.33 542.236 1736.42 542.235 1736.44 543.207 1698.47 543.207 1698.49 543.795 1660.49 543.795 1660.51 543.992 1622.49 543.992 1622.51 543.793 1584.49 543.793 1584.51 543.2 1546.51 543.201 1546.53 542.22 1508.56 542.221 1508.58 540.859 1470.67 540.86 1470.69 539.123 1432.86 539.124 1432.88 537.018 1395.13 537.021 1395.17 531.728 1320.03 531.731 1320.07 525.038 1245.53 525.042 1245.57 516.998 1171.77 517.003 1171.81 507.659 1098.9 507.665 1098.94 497.07 1027.07 497.077 1027.12 485.282 956.433 485.29 956.476 472.344 887.131 472.351 887.164 465.462 853.039 465.467 853.061 458.31 819.326 458.315 819.349 450.895 786.022 450.9 786.045 443.224 753.145 443.23 753.168 435.303 720.714 435.309 720.738 427.139 688.748 427.146 688.772 418.738 657.265 418.745 657.289 410.106 626.284 410.113 626.308 401.249 595.823 401.256 595.848 392.174 565.901 392.182 565.927 382.887 536.537 382.895 536.563 373.394 507.749 373.403 507.776 363.701 479.556 363.711 479.584 353.816 451.977 353.826 452.006 343.743 425.029 343.755 425.06 333.49 398.733 333.503 398.764 323.064 373.106 323.077 373.139 312.469 348.168 312.484 348.202 301.713 323.936 301.729 323.971 290.802 300.43 290.819 300.467 279.742 277.668 279.761 277.707 268.541 255.67 268.561 255.71 257.203 234.452 257.226 234.495 245.737 214.036 245.762 214.08 234.148 194.438 234.176 194.485 222.442 175.678 222.474 175.727 210.628 157.775 210.663 157.827 198.711 140.748 198.75 140.802 186.698 124.614 186.742 124.671 174.596 109.393 174.646 109.454 162.413 95.1037 162.469 95.1675 150.154 81.7644 150.218 81.8313 137.828 69.3938 137.901 69.4635 125.442 58.0101 125.525 58.0824 113.004 47.6317 113.097 47.7059 100.52 38.2765 100.626 38.3516 87.9991 29.962 88.1196 30.0368 75.4484 22.7055 75.5842 22.7781 62.8755 16.5238 63.0272 16.5917 50.2873 11.4329 50.4552 11.4934 37.6902 7.44866 37.8734 7.49847 25.0897 4.58638 25.2863 4.62222 12.4901 2.86135 12.6968 2.88031-0.105692 2.28923ZM33.3425 3255.87 4.58333 3245 30.5373 3228.52Z" fill="#002C73" fill-rule="nonzero" fill-opacity="1" transform="matrix(1.83697e-16 1 1 -1.83697e-16 580.5 1398.5)"/><text fill="#333F50" fill-opacity="1" font-family="Arial,Arial_MSFontService,sans-serif" font-style="normal" font-variant="normal" font-weight="400" font-stretch="normal" font-size="92" text-anchor="start" direction="ltr" writing-mode="lr-tb" unicode-bidi="normal" text-decoration="none" transform="matrix(1 0 0 1 2027.28 1859)">5. Signed Certificate</text><path d="M387.5 1936C387.5 1904.8 412.796 1879.5 444.001 1879.5L711.999 1879.5C743.204 1879.5 768.5 1904.8 768.5 1936L768.5 2162C768.5 2193.2 743.204 2218.5 711.999 2218.5L444.001 2218.5C412.796 2218.5 387.5 2193.2 387.5 2162Z" stroke="#002C73" stroke-width="4.58333" stroke-linecap="butt" stroke-linejoin="miter" stroke-miterlimit="8" stroke-opacity="1" fill="#FF9E16" fill-rule="evenodd" fill-opacity="1"/><text fill="#FFFFFF" fill-opacity="1" font-family="Arial,Arial_MSFontService,sans-serif" font-style="normal" font-variant="normal" font-weight="400" font-stretch="normal" font-size="92" text-anchor="start" direction="ltr" writing-mode="lr-tb" unicode-bidi="normal" text-decoration="none" transform="matrix(1 0 0 1 480.391 2027)">DNS</text><text fill="#FFFFFF" fill-opacity="1" font-family="Arial,Arial_MSFontService,sans-serif" font-style="normal" font-variant="normal" font-weight="400" font-stretch="normal" font-size="92" text-anchor="start" direction="ltr" writing-mode="lr-tb" unicode-bidi="normal" text-decoration="none" transform="matrix(1 0 0 1 442.578 2137)">Server</text><path d="M3634.5 1936C3634.5 1904.8 3659.8 1879.5 3691 1879.5L3959 1879.5C3990.2 1879.5 4015.5 1904.8 4015.5 1936L4015.5 2162C4015.5 2193.2 3990.2 2218.5 3959 2218.5L3691 2218.5C3659.8 2218.5 3634.5 2193.2 3634.5 2162Z" stroke="#002C73" stroke-width="4.58333" stroke-linecap="butt" stroke-linejoin="miter" stroke-miterlimit="8" stroke-opacity="1" fill="#D2D755" fill-rule="evenodd" fill-opacity="1"/><text fill="#FFFFFF" fill-opacity="1" font-family="Arial,Arial_MSFontService,sans-serif" font-style="normal" font-variant="normal" font-weight="400" font-stretch="normal" font-size="92" text-anchor="start" direction="ltr" writing-mode="lr-tb" unicode-bidi="normal" text-decoration="none" transform="matrix(1 0 0 1 3727.68 2027)">DNS</text><text fill="#FFFFFF" fill-opacity="1" font-family="Arial,Arial_MSFontService,sans-serif" font-style="normal" font-variant="normal" font-weight="400" font-stretch="normal" font-size="92" text-anchor="start" direction="ltr" writing-mode="lr-tb" unicode-bidi="normal" text-decoration="none" transform="matrix(1 0 0 1 3689.87 2137)">Server</text><path d="M580.792 1650.5 580.792 1856.34 576.209 1856.34 576.208 1650.5ZM592.25 1851.76 578.5 1879.26 564.75 1851.76Z" fill="#002C73" fill-rule="nonzero" fill-opacity="1"/><path d="M3825.79 1648.48 3827.86 1856.55 3823.27 1856.6 3821.21 1648.52ZM3839.27 1851.86 3825.79 1879.49 3811.77 1852.13Z" fill="#002C73" fill-rule="nonzero" fill-opacity="1"/><text fill="#333F50" fill-opacity="1" font-family="Arial,Arial_MSFontService,sans-serif" font-style="normal" font-variant="normal" font-weight="400" font-stretch="normal" font-size="92" text-anchor="start" direction="ltr" writing-mode="lr-tb" unicode-bidi="normal" text-decoration="none" transform="matrix(1 0 0 1 307.364 1797)">Crypto Keys</text><text fill="#333F50" fill-opacity="1" font-family="Arial,Arial_MSFontService,sans-serif" font-style="normal" font-variant="normal" font-weight="400" font-stretch="normal" font-size="92" text-anchor="start" direction="ltr" writing-mode="lr-tb" unicode-bidi="normal" text-decoration="none" transform="matrix(1 0 0 1 3520.88 1800)">Signed Cert</text></g></g></svg>